<svg xmlns="http://www.w3.org/2000/svg" viewBox="0 0 320 180">
  <defs>
    <linearGradient id="sky" x1="0" y1="0" x2="0" y2="1">
      <stop offset="0" stop-color="#6FD5FF"/><stop offset="1" stop-color="#BFF0FF"/>
    </linearGradient>
  </defs>
  <rect width="320" height="180" fill="url(#sky)"/>
  <circle cx="272" cy="36" r="22" fill="#FFD449"/>
  <rect y="104" width="320" height="22" fill="#17A8C9"/>
  <rect y="126" width="320" height="54" fill="#F8D98C"/>
  <rect x="24" y="134" width="272" height="4" rx="2" fill="#FFFDF4" opacity=".9"/>
  <rect x="156" y="58" width="8" height="70" fill="#14486B"/>
  <rect x="150" y="58" width="20" height="5" rx="2" fill="#FF6B57"/>
  <g stroke="#FFFDF4" stroke-width="1.5" opacity=".8">
    <path d="M152 64 h16 M152 72 h16 M152 80 h16 M152 88 h16 M152 96 h16"/>
    <path d="M156 64 v60 M164 64 v60"/>
  </g>
  <circle cx="110" cy="60" r="17" fill="#FFFDF4" stroke="#14486B" stroke-width="3"/>
  <path d="M110 43 A17 17 0 0 1 124 69 Q114 64 110 60 Q107 50 110 43 Z" fill="#FF6B57" stroke="#14486B" stroke-width="2"/>
  <path d="M95 69 A17 17 0 0 1 98 48 Q105 55 110 60 Q105 68 99 72 Z" fill="#17A8C9" stroke="#14486B" stroke-width="2"/>
  <g fill="none" stroke-linecap="round">
    <path d="M70 118 Q68 130 66 136" stroke="#14486B" stroke-width="9"/>
    <path d="M70 118 Q68 130 66 136" stroke="#F8D98C" stroke-width="5"/>
    <path d="M84 118 Q86 130 88 136" stroke="#14486B" stroke-width="9"/>
    <path d="M84 118 Q86 130 88 136" stroke="#F8D98C" stroke-width="5"/>
  </g>
  <rect x="64" y="88" width="26" height="32" rx="11" fill="#FF6B57" stroke="#14486B" stroke-width="3"/>
  <g fill="none" stroke-linecap="round">
    <path d="M88 94 Q100 76 98 62" stroke="#14486B" stroke-width="9"/>
    <path d="M88 94 Q100 76 98 62" stroke="#F8D98C" stroke-width="5"/>
  </g>
  <circle cx="77" cy="74" r="15" fill="#F8D98C" stroke="#14486B" stroke-width="3"/>
  <path d="M62 72 Q63 56 77 57 Q91 56 92 72 Q85 63 77 64 Q69 63 62 72 Z" fill="#14486B"/>
  <circle cx="91" cy="58" r="5" fill="#14486B"/><circle cx="94" cy="56" r="3" fill="#FF5C8A"/>
</svg>
