<svg xmlns="http://www.w3.org/2000/svg" viewBox="0 0 200 200" fill="none">
  <rect width="200" height="200" rx="16" fill="#0f0e17"/>
  <!-- Background gradient elements -->
  <rect width="200" height="200" rx="16" fill="url(#bg)"/>
  <defs>
    <linearGradient id="bg" x1="0" y1="0" x2="200" y2="200">
      <stop offset="0%" stop-color="#1a1a2e"/>
      <stop offset="100%" stop-color="#0f0e17"/>
    </linearGradient>
  </defs>
  <!-- Bottles -->
  <g transform="translate(20, 35)">
    <!-- Bottle 1: Red -->
    <rect x="0" y="20" width="36" height="90" rx="4" fill="rgba(255,255,255,0.05)" stroke="rgba(255,255,255,0.15)" stroke-width="1.5"/>
    <rect x="2" y="86" width="32" height="22" rx="2" fill="#ef5350"/>
    <rect x="2" y="64" width="32" height="22" rx="2" fill="#ef5350"/>
    <rect x="2" y="42" width="32" height="22" rx="2" fill="#ef5350"/>
    <rect x="2" y="20" width="32" height="22" rx="2" fill="#ef5350"/>
  </g>
  <g transform="translate(64, 35)">
    <!-- Bottle 2: Blue -->
    <rect x="0" y="20" width="36" height="90" rx="4" fill="rgba(255,255,255,0.05)" stroke="rgba(255,255,255,0.15)" stroke-width="1.5"/>
    <rect x="2" y="86" width="32" height="22" rx="2" fill="#42a5f5"/>
    <rect x="2" y="64" width="32" height="22" rx="2" fill="#42a5f5"/>
    <rect x="2" y="42" width="32" height="22" rx="2" fill="#42a5f5"/>
    <rect x="2" y="20" width="32" height="22" rx="2" fill="#42a5f5"/>
  </g>
  <g transform="translate(108, 35)">
    <!-- Bottle 3: Mixed -->
    <rect x="0" y="20" width="36" height="90" rx="4" fill="rgba(255,255,255,0.05)" stroke="rgba(255,255,255,0.15)" stroke-width="1.5"/>
    <rect x="2" y="86" width="32" height="22" rx="2" fill="#ffd54f"/>
    <rect x="2" y="64" width="32" height="22" rx="2" fill="#ef5350"/>
    <rect x="2" y="42" width="32" height="22" rx="2" fill="#42a5f5"/>
    <rect x="2" y="20" width="32" height="22" rx="2" fill="#66bb6a"/>
  </g>
  <g transform="translate(152, 35)">
    <!-- Bottle 4: Mixed -->
    <rect x="0" y="20" width="36" height="90" rx="4" fill="rgba(255,255,255,0.05)" stroke="rgba(255,255,255,0.15)" stroke-width="1.5"/>
    <rect x="2" y="86" width="32" height="22" rx="2" fill="#66bb6a"/>
    <rect x="2" y="64" width="32" height="22" rx="2" fill="#ffd54f"/>
    <rect x="2" y="42" width="32" height="22" rx="2" fill="#ef5350"/>
    <rect x="2" y="20" width="32" height="22" rx="2" fill="#42a5f5"/>
  </g>
  <!-- Title -->
  <text x="100" y="178" text-anchor="middle" font-family="system-ui,sans-serif" font-size="16" font-weight="800" fill="url(#titleGrad)">SORT</text>
  <defs>
    <linearGradient id="titleGrad" x1="0" y1="0" x2="1" y2="0">
      <stop offset="0%" stop-color="#4dd0e1"/>
      <stop offset="100%" stop-color="#a29bfe"/>
    </linearGradient>
  </defs>
  <!-- Arrow hint -->
  <path d="M148 105 L160 92 L172 105" stroke="#4dd0e1" stroke-width="2.5" fill="none" stroke-linecap="round" stroke-linejoin="round" opacity="0.6"/>
</svg>
