<svg xmlns="http://www.w3.org/2000/svg" viewBox="0 0 200 200">
  <defs>
    <linearGradient id="bg" x1="0%" y1="0%" x2="100%" y2="100%">
      <stop offset="0%" stop-color="#1a1a2e"/>
      <stop offset="100%" stop-color="#16213e"/>
    </linearGradient>
  </defs>
  <rect width="200" height="200" fill="url(#bg)" rx="16"/>
  <!-- Grid of blocks -->
  <rect x="16" y="16" width="36" height="36" rx="6" fill="#C49A6C"/>
  <rect x="56" y="16" width="36" height="36" rx="6" fill="#5B9BD5"/>
  <rect x="96" y="16" width="36" height="36" rx="6" fill="#E8A317"/>
  <rect x="136" y="16" width="36" height="36" rx="6" fill="#666"/>
  <rect x="36" y="56" width="36" height="36" rx="6" fill="#E88471"/>
  <rect x="76" y="56" width="36" height="36" rx="6" fill="#8BC34A"/>
  <rect x="116" y="56" width="36" height="36" rx="6" fill="#C49A6C"/>
  <rect x="16" y="96" width="36" height="36" rx="6" fill="#E8A317"/>
  <rect x="56" y="96" width="36" height="36" rx="6" fill="#5B9BD5"/>
  <rect x="96" y="96" width="36" height="36" rx="6" fill="#666"/>
  <rect x="136" y="96" width="36" height="36" rx="6" fill="#C49A6C"/>
  <rect x="36" y="136" width="36" height="36" rx="6" fill="#8BC34A"/>
  <rect x="76" y="136" width="36" height="36" rx="6" fill="#E88471"/>
  <rect x="116" y="136" width="36" height="36" rx="6" fill="#5B9BD5"/>
  <!-- Emojis on blocks -->
  <text x="34" y="42" font-size="18" text-anchor="middle">🐻</text>
  <text x="74" y="42" font-size="18" text-anchor="middle">❄️</text>
  <text x="114" y="42" font-size="18" text-anchor="middle">🍯</text>
  <text x="154" y="42" font-size="18" text-anchor="middle">🐼</text>
  <text x="54" y="82" font-size="18" text-anchor="middle">🐟</text>
  <text x="94" y="82" font-size="18" text-anchor="middle">🎋</text>
  <text x="134" y="82" font-size="18" text-anchor="middle">🐻</text>
  <text x="34" y="122" font-size="18" text-anchor="middle">🍯</text>
  <text x="74" y="122" font-size="18" text-anchor="middle">❄️</text>
  <text x="114" y="122" font-size="18" text-anchor="middle">🐼</text>
  <text x="154" y="122" font-size="18" text-anchor="middle">🐻</text>
  <text x="54" y="162" font-size="18" text-anchor="middle">🎋</text>
  <text x="94" y="162" font-size="18" text-anchor="middle">🐟</text>
  <text x="134" y="162" font-size="18" text-anchor="middle">❄️</text>
</svg>
