<svg xmlns="http://www.w3.org/2000/svg" viewBox="0 0 480 320" width="480" height="320">
  <rect width="480" height="320" fill="#0f0d0c"/>
  <circle cx="100" cy="240" r="16" fill="#8B5CF6" opacity="0.9"/>
  <path d="M100 240 Q200 200 300 180 Q360 170 380 160" stroke="#3B82F6" stroke-width="8" fill="none" stroke-linecap="round" opacity="0.7"/>
  <circle cx="380" cy="160" r="14" fill="none" stroke="#16A34A" stroke-width="2" opacity="0.6"/>
  <rect x="370" y="150" width="18" height="24" rx="2" fill="#16A34A" opacity="0.8"/>
  <text x="379" y="167" text-anchor="middle" fill="white" font-size="12" font-weight="bold" font-family="monospace">$</text>
  <rect x="100" y="115" width="280" height="130" rx="6" fill="none" stroke="#D97706" stroke-width="1" opacity="0.15"/>
  <text x="240" y="310" text-anchor="middle" fill="#D97706" font-size="16" font-weight="bold" font-family="serif">Stretch Arm Bank Job</text>
  <text x="240" y="280" text-anchor="middle" fill="#D97706" font-size="10" font-family="monospace" opacity="0.5">EXTEND · GRAB · RETRACT</text>
  <line x1="130" y1="140" x2="350" y2="140" stroke="#DC2626" stroke-width="1.5" opacity="0.2"/>
  <circle cx="240" cy="160" r="6" fill="#3B82F6" opacity="0.3"/>
  <circle cx="170" cy="190" r="5" fill="#3B82F6" opacity="0.3"/>
  <circle cx="310" cy="200" r="5" fill="#3B82F6" opacity="0.3"/>
  <!-- Cash stacks -->
  <rect x="280" y="155" width="12" height="18" rx="1" fill="#15803D" opacity="0.6"/>
  <rect x="220" y="165" width="12" height="18" rx="1" fill="#15803D" opacity="0.6"/>
  <rect x="340" y="148" width="12" height="18" rx="1" fill="#15803D" opacity="0.6"/>
</svg>
